 <svg version="1.0" xmlns="http://www.w3.org/2000/svg" width="700.000000pt" height="394.000000pt" viewBox="0 0 700.000000 394.000000" preserveAspectRatio="xMidYMid meet">
<metadata>
Created by potrace 1.12, written by Peter Selinger 2001-2015
</metadata>
<g transform="translate(0.000000,394.000000) scale(0.100000,-0.100000)" fill="#000000" stroke="none">
<path d="M3260 3439 c-305 -30 -781 -150 -1054 -264 l-39 -17 6 -402 c9 -497
24 -644 98 -937 138 -551 435 -1045 835 -1390 103 -89 287 -222 355 -258 l46
-25 84 53 c635 403 1062 1070 1198 1872 29 169 40 344 46 735 l5 352 -42 17
c-275 110 -605 199 -913 246 -153 23 -481 33 -625 18z m435 -49 c395 -23 738
-99 1001 -224 l94 -45 0 -118 c-1 -277 -20 -737 -35 -848 -110 -823 -525
-1488 -1186 -1902 l-67 -42 -118 78 c-383 251 -664 568 -864 976 -113 230
-173 401 -225 642 -55 251 -63 342 -74 848 -7 324 -6 361 8 372 9 7 69 35 135
63 258 110 582 180 921 199 192 12 224 12 410 1z"></path>
<path d="M3466 3264 c-5 -12 -1 -23 10 -31 36 -27 46 -10 16 27 -18 22 -19 22
-26 4z"></path>
<path d="M3534 3266 c-3 -9 -4 -22 -1 -30 11 -27 -17 -37 -56 -21 -20 8 -51
14 -69 14 -18 -1 -25 -3 -15 -6 30 -8 18 -23 -20 -24 -36 -1 -36 -2 11 -10 43
-7 78 -24 65 -31 -49 -32 -157 -80 -197 -88 -42 -9 -55 -18 -72 -46 -40 -63
-20 -89 53 -71 16 5 27 3 27 -3 0 -6 -13 -13 -30 -16 -16 -4 -30 -10 -30 -14
0 -15 27 -18 68 -7 31 8 56 8 100 -1 32 -7 70 -12 85 -12 20 0 27 -5 27 -20 0
-41 -59 -149 -113 -208 -30 -33 -60 -69 -66 -80 -6 -10 -27 -27 -48 -37 -21
-10 -52 -28 -70 -41 -17 -13 -34 -24 -37 -24 -3 0 -35 21 -71 48 -36 26 -80
57 -97 70 -40 29 -73 28 -101 -2 -21 -22 -122 -195 -168 -286 -41 -82 -63
-190 -38 -190 6 0 29 10 50 22 41 23 57 51 40 71 -16 20 20 112 65 165 22 26
49 59 58 75 24 36 40 34 73 -10 15 -21 44 -53 63 -71 32 -31 33 -33 10 -27
-123 33 -160 38 -185 25 -50 -27 -55 -60 -34 -215 11 -77 24 -149 29 -160 37
-76 88 -160 102 -169 23 -14 37 0 45 47 8 52 -2 80 -37 99 -18 11 -30 25 -30
38 0 12 -6 33 -14 48 -7 15 -16 56 -19 92 -3 36 -9 73 -12 83 -20 51 79 7 191
-85 25 -21 54 -38 64 -38 13 0 35 -24 65 -69 53 -81 141 -166 271 -262 50 -37
94 -75 97 -84 9 -22 4 -20 -68 35 -36 28 -71 50 -77 50 -7 0 -9 -25 -6 -75 4
-67 11 -88 61 -187 79 -155 86 -149 -156 -146 -136 1 -204 -3 -235 -12 -73
-23 -79 -50 -16 -76 45 -19 81 -18 93 4 15 28 203 29 322 1 49 -11 96 -18 104
-15 21 8 19 52 -6 121 -32 92 -23 175 30 277 22 44 41 86 41 94 0 8 5 14 10
14 20 0 9 -42 -27 -113 -36 -69 -38 -77 -38 -169 0 -95 1 -98 46 -187 l46 -90
-22 -34 c-13 -18 -59 -62 -104 -97 -44 -35 -83 -71 -86 -79 -3 -9 -21 -27 -41
-41 -42 -28 -69 -64 -59 -80 8 -13 105 -13 140 0 20 8 25 15 20 30 -5 15 1 29
19 48 15 15 47 51 73 80 26 29 73 69 105 89 54 33 58 39 58 73 0 20 -7 45 -15
56 -19 25 -19 84 0 111 8 12 43 41 78 66 87 62 134 128 152 210 3 15 9 27 14
27 18 0 21 -34 10 -92 -14 -72 -5 -87 14 -22 17 59 37 70 37 20 0 -20 -14 -64
-32 -100 -21 -43 -29 -70 -23 -82 7 -17 8 -16 15 7 4 14 23 46 43 72 48 63 59
127 32 190 -4 9 -3 17 3 17 13 0 29 -45 35 -99 7 -56 23 -73 24 -23 0 20 2 46
3 57 2 11 0 36 -3 55 -7 34 -5 37 28 48 19 7 50 31 68 53 48 55 62 111 52 207
-13 119 -8 159 26 219 17 29 29 63 27 75 -4 21 -6 19 -19 -12 -20 -45 -68
-102 -80 -94 -21 12 -9 81 21 123 41 56 66 109 55 118 -4 5 -10 3 -12 -4 -9
-24 -72 -100 -97 -117 l-26 -16 0 30 c0 43 24 96 67 148 27 33 31 42 15 33
-47 -25 -103 -96 -119 -151 -17 -57 -15 -75 16 -220 17 -75 13 -190 -8 -235
-23 -52 -80 -101 -132 -115 -43 -12 -58 -4 -59 28 0 50 -99 176 -193 246 -82
61 -140 132 -168 206 -21 55 -24 87 -9 110 8 12 13 13 30 3 11 -7 28 -13 38
-13 10 0 36 -13 58 -30 59 -44 65 -36 11 15 -48 45 -43 63 6 25 36 -28 45 -25
16 6 -13 15 -42 35 -64 45 l-40 19 35 -6 c19 -4 55 -14 80 -24 25 -10 58 -16
73 -13 41 8 43 23 2 16 -30 -5 -41 -1 -63 21 -16 14 -49 33 -75 42 -26 9 -47
20 -47 26 0 6 7 7 18 2 9 -4 40 -9 67 -10 28 0 59 -4 70 -9 14 -5 10 1 -10 19
-16 14 -40 25 -52 26 -13 0 -23 5 -23 10 0 14 31 12 60 -5 14 -8 36 -14 50
-15 24 0 23 1 -10 22 -19 12 -48 27 -64 33 -16 5 -31 16 -34 23 -3 10 4 9 29
-3 l34 -18 -24 27 c-14 14 -21 26 -17 26 12 0 70 -31 89 -48 9 -8 20 -13 23
-10 6 7 -53 69 -111 117 l-40 33 40 -7 c22 -4 49 -15 60 -26 25 -22 85 -37 85
-20 0 6 -9 11 -20 11 -12 0 -29 15 -45 40 -14 22 -38 46 -54 54 -16 9 -31 22
-35 31 -8 21 16 14 98 -26 33 -16 63 -29 68 -29 18 0 -115 115 -150 131 -20 9
-31 18 -25 22 6 4 30 -2 54 -12 24 -11 62 -22 84 -26 l40 -7 -33 21 c-18 12
-36 21 -41 21 -13 0 -61 40 -61 51 0 5 11 2 25 -7 17 -11 37 -15 59 -11 22 4
42 0 57 -11 l24 -16 -19 22 c-11 12 -37 25 -58 29 -23 3 -57 20 -81 40 -57 48
-57 47 -17 38 19 -4 58 -11 85 -15 28 -4 59 -10 70 -14 14 -5 11 0 -10 18 -16
14 -37 26 -45 26 -18 -1 -130 52 -130 61 0 10 69 21 81 13 7 -4 10 -1 7 7 -3
9 -26 16 -65 19 -44 4 -68 11 -85 26 -13 12 -37 25 -55 29 -17 3 -37 13 -44
21 -7 8 -25 24 -41 35 -25 18 -29 18 -34 5z m141 -96 c3 -5 -1 -10 -9 -10 -9
0 -16 5 -16 10 0 6 4 10 9 10 6 0 13 -4 16 -10z m-155 -60 c0 -5 -7 -7 -15 -4
-8 4 -15 8 -15 10 0 2 7 4 15 4 8 0 15 -4 15 -10z m180 0 c0 -5 -7 -7 -15 -4
-8 4 -15 8 -15 10 0 2 7 4 15 4 8 0 15 -4 15 -10z m-300 -25 c-12 -14 -80 -38
-87 -31 -5 4 90 52 96 49 2 -1 -2 -9 -9 -18z m110 -5 c8 -16 8 -20 -4 -20 -8
0 -18 5 -21 11 -4 6 -13 8 -21 5 -8 -3 -14 -2 -14 3 0 27 45 28 60 1z m230
-32 c0 -6 -3 -9 -6 -5 -3 3 -17 2 -30 -3 -22 -9 -40 0 -27 14 11 11 63 6 63
-6z m-520 -46 c0 -4 -9 -13 -20 -20 -16 -10 -20 -10 -20 1 0 8 3 17 7 20 9 9
33 9 33 -1z m510 -12 c0 -5 -4 -10 -9 -10 -6 0 -13 5 -16 10 -3 6 1 10 9 10 9
0 16 -4 16 -10z m-233 -36 c-28 -24 -47 -31 -47 -16 1 9 64 50 70 44 3 -2 -8
-15 -23 -28z m-187 12 c0 -3 -4 -8 -10 -11 -5 -3 -10 -1 -10 4 0 6 5 11 10 11
6 0 10 -2 10 -4z m260 -16 c0 -5 -10 -15 -22 -21 -23 -12 -23 -12 -4 10 21 23
26 26 26 11z m167 -7 c3 -7 -3 -9 -16 -6 -12 3 -21 10 -21 15 0 13 32 6 37 -9z
m-157 -28 c-7 -8 -24 -15 -39 -14 l-26 1 30 13 c40 18 50 18 35 0z m160 -15
c0 -5 -6 -10 -14 -10 -8 0 -18 5 -21 10 -3 6 3 10 14 10 12 0 21 -4 21 -10z
m-5 -51 c11 -17 0 -20 -21 -4 -17 13 -17 14 -2 15 9 0 20 -5 23 -11z m-171
-76 c-7 -41 -29 -82 -69 -127 -39 -42 -38 -28 1 34 19 30 40 72 46 93 6 20 15
37 20 37 5 0 6 -17 2 -37z m176 22 c8 -9 8 -15 2 -15 -18 0 -42 12 -42 21 0
14 26 10 40 -6z m-9 -51 c12 -14 11 -16 -5 -13 -11 2 -21 10 -24 17 -5 17 13
15 29 -4z m-6 -44 c3 -5 -1 -10 -9 -10 -8 0 -18 5 -21 10 -3 6 1 10 9 10 8 0
18 -4 21 -10z m-5 -46 c0 -2 -7 -4 -15 -4 -8 0 -15 4 -15 10 0 5 7 7 15 4 8
-4 15 -8 15 -10z m-13 -40 c-3 -3 -12 -4 -19 -1 -8 3 -5 6 6 6 11 1 17 -2 13
-5z m-772 -24 c-3 -5 -10 -10 -16 -10 -5 0 -9 5 -9 10 0 6 7 10 16 10 8 0 12
-4 9 -10z m760 -10 c3 -5 2 -10 -4 -10 -5 0 -13 5 -16 10 -3 6 -2 10 4 10 5 0
13 -4 16 -10z m-274 -60 l24 -20 -30 7 c-16 4 -51 7 -77 6 -53 -1 -59 3 -25
17 38 15 84 11 108 -10z m-567 -13 c-20 -35 -47 -68 -51 -63 -8 8 39 86 49 80
4 -3 5 -11 2 -17z m811 3 c3 -5 1 -10 -4 -10 -6 0 -11 5 -11 10 0 6 2 10 4 10
3 0 8 -4 11 -10z m-648 -76 c-4 -4 -14 1 -22 12 -22 29 -18 41 7 17 12 -13 19
-26 15 -29z m115 -39 c-31 -51 -51 -61 -26 -12 20 40 34 57 45 57 4 0 -4 -20
-19 -45z m-278 -50 c-4 -8 -10 -15 -15 -15 -4 0 -6 7 -3 15 4 8 10 15 15 15 4
0 6 -7 3 -15z m-142 -57 c-7 -7 -12 -8 -12 -2 0 14 12 26 19 19 2 -3 -1 -11
-7 -17z m878 -23 c0 -36 34 -99 82 -151 22 -24 36 -44 30 -44 -19 0 -94 82
-113 123 -20 45 -25 97 -9 97 6 0 10 -11 10 -25z m-560 -37 c0 -12 -8 -10 -50
15 -54 30 -50 42 5 15 25 -12 45 -26 45 -30z m-186 -62 c5 -29 4 -46 -2 -42
-13 8 -23 62 -15 81 8 21 9 18 17 -39z m-154 9 c0 -8 -4 -15 -10 -15 -5 0 -10
7 -10 15 0 8 5 15 10 15 6 0 10 -7 10 -15z m653 -191 c59 -61 107 -115 107
-119 0 -10 -66 39 -118 89 -43 41 -112 127 -112 141 0 14 19 -3 123 -111z
m925 -37 c-4 -77 -25 -120 -76 -153 -37 -24 -39 -7 -4 29 43 45 62 96 62 169
1 50 3 59 11 45 6 -11 9 -50 7 -90z m-555 -13 c3 -4 -5 -15 -18 -26 -14 -11
-25 -26 -25 -34 0 -8 -4 -12 -10 -9 -16 10 -12 33 10 55 21 21 32 24 43 14z
m-768 -55 c11 -17 -1 -21 -15 -4 -8 9 -8 15 -2 15 6 0 14 -5 17 -11z m1025
-171 c0 -33 -14 -67 -24 -58 -8 9 6 90 15 90 5 0 9 -15 9 -32z m-337 -150 c-6
-53 -23 -66 -23 -17 0 28 17 75 25 67 2 -1 1 -24 -2 -50z m-73 -168 c0 -5 -5
-10 -11 -10 -5 0 -7 5 -4 10 3 6 8 10 11 10 2 0 4 -4 4 -10z m-101 -36 c2 -2
-23 -4 -57 -4 -33 0 -64 5 -67 11 -5 7 13 8 57 3 34 -4 65 -8 67 -10z m-364
-4 c-3 -5 -10 -10 -16 -10 -5 0 -9 5 -9 10 0 6 7 10 16 10 8 0 12 -4 9 -10z
m581 -192 c-17 -26 -86 -83 -86 -71 0 10 82 93 92 93 5 0 2 -10 -6 -22z m-141
-118 c-3 -5 -11 -10 -16 -10 -6 0 -7 5 -4 10 3 6 11 10 16 10 6 0 7 -4 4 -10z
m-110 -110 c-20 -22 -31 -20 -22 5 4 8 14 15 23 15 16 0 16 -2 -1 -20z"></path>
<path d="M4209 1076 c-3 -3 -34 -10 -69 -16 -47 -7 -90 -7 -156 1 -107 14
-152 7 -194 -28 -34 -28 -37 -59 -8 -77 20 -12 69 2 76 22 3 11 0 12 -15 3
-15 -8 -25 -7 -39 4 -18 15 -18 16 6 36 21 18 33 20 81 15 31 -3 63 -8 73 -12
16 -6 16 -8 -2 -28 -11 -11 -27 -36 -36 -53 -9 -18 -30 -40 -46 -48 -35 -18
-40 -29 -9 -20 19 7 21 4 15 -20 -18 -70 -83 -135 -136 -135 -30 0 -80 53 -80
84 0 21 4 24 27 23 22 -2 29 3 31 20 2 15 -3 23 -18 28 -33 10 -60 -20 -60
-68 0 -31 7 -46 34 -73 30 -30 41 -34 83 -34 68 0 120 38 159 116 20 40 37 60
51 62 12 2 29 13 39 24 19 21 19 21 -3 9 -49 -25 -57 -1 -20 63 20 37 27 41
87 52 63 12 140 39 140 49 0 6 -5 6 -11 1z"></path>
<path d="M3071 1051 c-28 -28 -28 -82 0 -107 11 -10 57 -37 102 -59 72 -35 82
-44 85 -69 9 -78 -77 -121 -163 -81 -32 16 -60 58 -50 76 4 5 15 9 26 9 26 0
36 28 16 48 -15 15 -19 14 -42 -8 -29 -27 -32 -58 -10 -100 20 -39 63 -60 123
-60 65 0 112 31 131 86 13 37 12 44 -5 79 -15 32 -33 46 -90 75 -85 42 -104
56 -104 81 0 47 95 34 150 -21 34 -34 38 -36 30 -14 -6 14 -10 36 -10 49 0 20
-5 24 -27 24 -16 0 -53 3 -84 7 -50 5 -59 4 -78 -15z"></path>
</g>
</svg>